<?xml version="1.0" standalone="no"?>
<!DOCTYPE svg PUBLIC "-//W3C//DTD SVG 20010904//EN"
 "http://www.w3.org/TR/2001/REC-SVG-20010904/DTD/svg10.dtd">
<svg version="1.0" xmlns="http://www.w3.org/2000/svg"
 width="1271.000000pt" height="230.000000pt" viewBox="0 0 1271.000000 230.000000"
 preserveAspectRatio="xMidYMid meet">
<metadata>
Created by potrace 1.15, written by Peter Selinger 2001-2017
</metadata>
<g transform="translate(0.000000,230.000000) scale(0.100000,-0.100000)"
fill="#000000" stroke="none">
<path d="M7677 2290 c-109 -28 -197 -99 -325 -263 -97 -125 -134 -189 -224
-382 -101 -217 -137 -312 -258 -675 -137 -411 -164 -522 -165 -690 0 -141 11
-175 76 -218 31 -22 43 -23 121 -20 78 4 95 8 175 48 123 61 248 186 368 368
118 180 155 253 155 305 0 23 -5 49 -10 57 -14 22 -32 0 -130 -160 -115 -185
-149 -229 -232 -301 -132 -114 -216 -131 -238 -48 -18 66 33 321 109 543 30
86 34 92 139 200 185 191 423 491 529 667 126 209 170 326 160 432 -6 66 -24
100 -67 122 -37 19 -133 27 -183 15z m143 -105 c28 -75 -105 -356 -297 -625
-92 -129 -306 -400 -311 -395 -9 9 201 513 283 680 131 265 210 365 288 365
20 0 30 -7 37 -25z"/>
<path d="M455 2146 c-44 -7 -98 -19 -120 -26 -158 -51 -277 -176 -321 -337
-14 -51 -14 -65 -4 -78 19 -23 26 -19 59 40 39 69 110 126 226 181 160 75 321
119 485 131 l90 6 -81 -174 c-256 -551 -789 -1787 -789 -1828 0 -7 50 -11 146
-11 140 0 145 1 139 20 -13 42 31 216 119 465 90 254 337 855 474 1155 l67
145 7 -41 c24 -146 41 -394 45 -700 7 -426 -6 -574 -62 -706 -5 -14 5 -20 60
-37 74 -23 122 -26 177 -11 49 14 113 85 327 361 370 476 644 810 787 958 l90
94 -146 -294 c-393 -793 -519 -1230 -393 -1371 55 -62 170 -74 329 -33 154 40
234 87 234 137 0 23 -10 22 -92 -7 -40 -14 -50 -15 -75 -3 -95 45 -83 260 32
603 146 436 487 1110 668 1319 l51 59 -170 -5 c-195 -6 -269 -24 -350 -84 -50
-37 -429 -485 -906 -1072 -138 -169 -252 -309 -254 -311 -2 -2 -4 102 -4 232
0 327 -26 855 -51 1032 -13 97 -44 155 -94 180 -37 18 -62 20 -330 22 -195 1
-316 -3 -370 -11z"/>
<path d="M3448 1821 c-79 -50 -128 -131 -128 -212 0 -45 4 -55 36 -87 l37 -37
16 25 c52 81 130 140 184 140 32 0 77 52 77 88 -1 99 -124 145 -222 83z"/>
<path d="M6538 1821 c-79 -50 -128 -131 -128 -212 0 -45 4 -55 36 -87 l37 -37
16 25 c52 81 130 140 184 140 32 0 77 52 77 88 -1 99 -124 145 -222 83z"/>
<path d="M8378 1821 c-79 -50 -128 -131 -128 -212 0 -45 4 -55 36 -87 l37 -37
16 25 c52 81 130 140 184 140 32 0 77 52 77 88 -1 99 -124 145 -222 83z"/>
<path d="M9130 1311 c-114 -16 -193 -55 -260 -127 -65 -71 -84 -123 -85 -229
0 -131 23 -175 173 -329 126 -129 159 -180 169 -263 7 -62 -18 -124 -72 -176
-53 -51 -109 -70 -191 -65 -62 4 -69 7 -100 41 -30 32 -34 43 -34 89 0 50 7
72 41 126 13 21 12 25 -14 48 -36 31 -107 33 -155 4 -44 -27 -82 -108 -82
-176 0 -66 38 -143 89 -178 85 -59 140 -71 331 -71 165 1 179 2 255 29 145 50
237 119 362 269 76 92 187 251 242 348 37 67 50 144 28 173 -13 18 -15 17 -44
-25 -16 -24 -45 -71 -63 -104 -92 -164 -237 -356 -319 -421 -67 -54 -79 -61
-54 -34 12 14 34 50 49 80 25 48 28 67 29 145 0 76 -4 97 -24 134 -33 62 -112
143 -200 205 -203 142 -246 274 -119 369 72 55 186 60 234 12 44 -44 27 -86
-57 -143 -52 -35 -59 -47 -52 -85 17 -89 170 -91 251 -3 50 54 65 101 60 182
-4 58 -8 68 -39 99 -61 62 -213 94 -349 76z"/>
<path d="M4474 1265 c-108 -23 -217 -77 -328 -163 -41 -32 -57 -40 -52 -27 20
52 28 118 17 141 -16 36 -49 44 -178 44 -106 0 -115 -1 -111 -18 9 -32 -13
-154 -44 -252 -17 -52 -90 -248 -163 -435 -120 -308 -175 -462 -175 -494 0 -8
44 -11 149 -11 l149 0 11 33 c131 424 219 652 297 774 80 126 244 252 351 269
37 6 43 3 58 -20 13 -19 15 -36 10 -68 -12 -67 -57 -210 -114 -358 -56 -143
-231 -619 -231 -626 0 -2 69 -4 154 -4 l154 0 11 48 c46 184 163 518 227 644
89 177 256 335 402 379 37 11 45 10 59 -4 30 -30 18 -90 -62 -287 -99 -243
-145 -426 -145 -572 0 -158 48 -218 176 -218 143 0 318 143 491 400 110 165
153 239 164 288 10 45 2 102 -16 102 -7 0 -32 -33 -55 -72 -148 -252 -279
-408 -379 -453 l-43 -19 -20 24 c-17 21 -19 35 -15 86 7 74 65 257 154 484 96
245 98 341 9 381 -134 61 -398 -22 -579 -181 -25 -22 -47 -40 -50 -40 -3 0 -1
17 4 38 21 93 -3 161 -66 188 -42 17 -139 17 -221 -1z"/>
<path d="M10774 1265 c-108 -23 -217 -77 -328 -163 -41 -32 -57 -40 -52 -27
20 52 28 118 17 141 -16 36 -49 44 -178 44 -106 0 -115 -1 -111 -18 9 -32 -13
-154 -44 -252 -17 -52 -90 -248 -163 -435 -120 -308 -175 -462 -175 -494 0 -8
44 -11 149 -11 l149 0 11 33 c131 424 219 652 297 774 80 126 244 252 351 269
37 6 43 3 58 -20 13 -19 15 -36 10 -68 -12 -67 -57 -210 -114 -358 -56 -143
-231 -619 -231 -626 0 -2 69 -4 154 -4 l154 0 11 48 c46 184 163 518 227 644
89 177 256 335 402 379 37 11 45 10 59 -4 30 -30 18 -90 -62 -287 -99 -243
-145 -426 -145 -572 0 -158 48 -218 176 -218 143 0 318 143 491 400 110 165
153 239 164 288 10 45 2 102 -16 102 -7 0 -32 -33 -55 -72 -148 -252 -279
-408 -379 -453 l-43 -19 -20 24 c-17 21 -19 35 -15 86 7 74 65 257 154 484 96
245 98 341 9 381 -134 61 -398 -22 -579 -181 -25 -22 -47 -40 -50 -40 -3 0 -1
17 4 38 21 93 -3 161 -66 188 -42 17 -139 17 -221 -1z"/>
<path d="M3088 1231 c-64 -41 -109 -104 -192 -271 -127 -256 -180 -452 -181
-665 0 -117 2 -134 23 -173 35 -65 72 -84 158 -79 84 5 137 30 236 115 92 78
153 151 268 324 126 190 142 222 138 289 -2 31 -8 54 -15 57 -7 2 -30 -24 -50
-58 -179 -292 -268 -401 -364 -450 -50 -26 -74 -25 -93 2 -32 46 -11 170 59
348 57 145 207 447 259 523 l46 67 -123 0 c-119 0 -125 -1 -169 -29z"/>
<path d="M6178 1231 c-64 -41 -109 -104 -192 -271 -127 -256 -180 -452 -181
-665 0 -117 2 -134 23 -173 35 -65 72 -84 158 -79 84 5 137 30 236 115 92 78
153 151 268 324 126 190 142 222 138 289 -2 31 -8 54 -15 57 -7 2 -30 -24 -50
-58 -179 -292 -268 -401 -364 -450 -50 -26 -74 -25 -93 2 -32 46 -11 170 59
348 57 145 207 447 259 523 l46 67 -123 0 c-119 0 -125 -1 -169 -29z"/>
<path d="M8018 1231 c-64 -41 -109 -104 -192 -271 -127 -256 -180 -452 -181
-665 0 -117 2 -134 23 -173 35 -65 72 -84 158 -79 84 5 137 30 236 115 92 78
153 151 268 324 126 190 142 222 138 289 -2 31 -8 54 -15 57 -7 2 -30 -24 -50
-58 -179 -292 -268 -401 -364 -450 -50 -26 -74 -25 -93 2 -32 46 -11 170 59
348 57 145 207 447 259 523 l46 67 -123 0 c-119 0 -125 -1 -169 -29z"/>
<path d="M12480 300 c-149 -69 -159 -189 -21 -249 l49 -21 79 78 c43 42 88 85
101 94 28 23 28 50 -2 85 -21 24 -32 28 -92 30 -54 3 -79 -1 -114 -17z"/>
</g>
</svg>
