<svg width="22" height="33" viewBox="0 0 22 33" fill="none" xmlns="http://www.w3.org/2000/svg">
<rect width="22" height="33" fill="black" fill-opacity="0"/>
<ellipse cx="11.5" cy="29.5" rx="7" ry="3" fill="black" fill-opacity="0.11"/>
<path fill-rule="evenodd" clip-rule="evenodd" d="M11.5 28.5C4 20.5 1 15.5 1 11C1 5.5 6.5 1 11.5 1C16.5 1 21.5 5.5 21.5 11C21.5 15.5 19 20.5 11.5 28.5ZM11.5 16.5C14.2614 16.5 16.5 14.2614 16.5 11.5C16.5 8.73858 14.2614 6.5 11.5 6.5C8.73858 6.5 6.5 8.73858 6.5 11.5C6.5 14.2614 8.73858 16.5 11.5 16.5Z" fill="black"/>
<path d="M11.5 28.5L11.1352 28.842L11.5 29.2311L11.8648 28.842L11.5 28.5ZM16 11.5C16 13.9853 13.9853 16 11.5 16V17C14.5376 17 17 14.5376 17 11.5H16ZM11.5 16C9.01472 16 7 13.9853 7 11.5H6C6 14.5376 8.46243 17 11.5 17V16ZM7 11.5C7 9.01472 9.01472 7 11.5 7V6C8.46243 6 6 8.46243 6 11.5H7ZM11.5 7C13.9853 7 16 9.01472 16 11.5H17C17 8.46243 14.5376 6 11.5 6V7ZM0.5 11C0.5 15.7197 3.64493 20.8523 11.1352 28.842L11.8648 28.158C4.35507 20.1477 1.5 15.2803 1.5 11H0.5ZM11.8648 28.842C19.3773 20.8286 22 15.7049 22 11H21C21 15.2951 18.6227 20.1714 11.1352 28.158L11.8648 28.842ZM22 11C22 5.20802 16.76 0.5 11.5 0.5V1.5C16.24 1.5 21 5.79198 21 11H22ZM11.5 0.5C8.85749 0.5 6.1166 1.6844 4.03924 3.56701C1.95946 5.45181 0.5 8.07853 0.5 11H1.5C1.5 8.42147 2.79054 6.04819 4.71076 4.30799C6.6334 2.5656 9.14251 1.5 11.5 1.5V0.5Z" fill="black"/>
</svg>
