<svg xmlns="http://www.w3.org/2000/svg" width="204.187" height="18.625" viewBox="0 0 102.094 9.313">
  <metadata><?xpacket begin="﻿" id="W5M0MpCehiHzreSzNTczkc9d"?>
<x:xmpmeta xmlns:x="adobe:ns:meta/" x:xmptk="Adobe XMP Core 5.6-c138 79.159824, 2018/09/14-01:09:01        ">
   <rdf:RDF xmlns:rdf="http://www.w3.org/1999/02/22-rdf-syntax-ns#">
      <rdf:Description rdf:about=""/>
   </rdf:RDF>
</x:xmpmeta>





















<?xpacket end="w"?></metadata>
<defs>
    <style>
      .cls-1 {
        fill-rule: evenodd;
        fill: #fff;
      }
    </style>
  </defs>
  <path id="Mimilism" data-name="Mimilism" class="cls-1" d="M28.936,26.644h3.015V26.035H25.267v0.609h3.015v8.671h0.654V26.644Zm11.824-.609H40.106v4.12H34.685v-4.12H34.037v9.28h0.648V30.751h5.421v4.564h0.654v-9.28Zm7.87,8.684H44.2v-3.98h4.177v-0.6H44.2v-3.51h4.424v-0.6H43.557v9.28h5.072v-0.6Zm5.657,0.6H57.9a4.155,4.155,0,0,0,2.587-.727,2.37,2.37,0,0,0,.949-1.99,2.3,2.3,0,0,0-.387-1.384,2.16,2.16,0,0,0-1.251-.762V30.389a1.784,1.784,0,0,0,1.054-.711,2.212,2.212,0,0,0,.4-1.333,1.9,1.9,0,0,0-.917-1.749,5.506,5.506,0,0,0-2.809-.562H54.286v9.28Zm2.507-7.382h0.7q1.181,0,1.181.781a0.774,0.774,0,0,1-.3.66,1.365,1.365,0,0,1-.835.222H56.793V27.933Zm0.831,3.5a1.447,1.447,0,0,1,.911.248,0.852,0.852,0,0,1,.314.711,0.965,0.965,0,0,1-1.174.99H56.793V31.43h0.831Zm14.617,3.885L69.176,26H65.831L62.8,35.315h2.755l0.47-1.739h3.015L69.5,35.315h2.742Zm-5.694-3.8q0.578-2.184.746-2.926t0.225-1.066q0.063,0.349.263,1.155T68.123,30l0.4,1.523H66.548Zm9.92,0.419,1.968,3.377H81.28l-2.7-4.044a2.74,2.74,0,0,0,1.574-2.495q0-2.742-3.783-2.742H73.326v9.28h2.507V31.938h0.635Zm-0.635-4.005h0.5q1.288,0,1.289.959A1.1,1.1,0,0,1,76.3,30.053h-0.47v-2.12Zm7.013,7.382h3.612a4.155,4.155,0,0,0,2.587-.727,2.37,2.37,0,0,0,.949-1.99,2.3,2.3,0,0,0-.387-1.384,2.16,2.16,0,0,0-1.251-.762V30.389a1.784,1.784,0,0,0,1.054-.711,2.212,2.212,0,0,0,.4-1.333,1.9,1.9,0,0,0-.917-1.749,5.506,5.506,0,0,0-2.809-.562H82.846v9.28Zm2.507-7.382h0.7q1.181,0,1.181.781a0.774,0.774,0,0,1-.3.66,1.365,1.365,0,0,1-.835.222H85.353V27.933Zm0.832,3.5a1.447,1.447,0,0,1,.911.248,0.852,0.852,0,0,1,.314.711,0.965,0.965,0,0,1-1.174.99H85.353V31.43h0.832Zm11.691,1.841h-3V31.519h2.78V29.507h-2.78v-1.46h3V26.035h-5.51v9.28h5.51V33.271Zm5.152-1.333L105,35.315h2.844l-2.7-4.044a2.741,2.741,0,0,0,1.574-2.495q0-2.742-3.783-2.742H99.886v9.28h2.507V31.938h0.635Zm-0.635-4.005h0.5q1.289,0,1.288.959a1.1,1.1,0,0,1-1.314,1.162h-0.47v-2.12Zm10.155,4.005,1.968,3.377h2.844l-2.7-4.044a2.741,2.741,0,0,0,1.574-2.495q0-2.742-3.783-2.742h-3.041v9.28h2.507V31.938h0.635Zm-0.635-4.005h0.5q1.29,0,1.289.959a1.1,1.1,0,0,1-1.314,1.162h-0.47v-2.12Zm15.449,7.382L124.3,26h-3.345l-3.028,9.318h2.755l0.47-1.739h3.015l0.457,1.739h2.742Zm-5.694-3.8q0.577-2.184.746-2.926t0.225-1.066q0.065,0.349.264,1.155T123.242,30l0.4,1.523h-1.974Z" transform="translate(-25.281 -26)"/>
</svg>
